<?xml version="1.0" standalone="no"?>
<!DOCTYPE svg PUBLIC "-//W3C//DTD SVG 20010904//EN"
 "http://www.w3.org/TR/2001/REC-SVG-20010904/DTD/svg10.dtd">
<svg version="1.0" xmlns="http://www.w3.org/2000/svg"
 width="980.000000pt" height="908.000000pt" viewBox="0 0 980.000000 908.000000"
 preserveAspectRatio="xMidYMid meet">
<metadata>
Created by potrace 1.16, written by Peter Selinger 2001-2019
</metadata>
<g transform="translate(0.000000,908.000000) scale(0.100000,-0.100000)"
fill="#FFFFFF" stroke="none">
<path d="M4495 9059 c-1284 -95 -2444 -592 -3289 -1409 -659 -638 -1063 -1416
-1178 -2270 -29 -217 -31 -652 -5 -855 113 -853 481 -1600 1103 -2237 l114
-117 -145 -1077 c-80 -592 -144 -1078 -143 -1080 2 -1 419 263 927 587 l923
590 136 -49 c646 -234 1264 -342 1957 -342 261 0 438 10 665 36 816 94 1593
360 2247 770 889 558 1517 1328 1813 2224 372 1123 161 2327 -580 3315 -827
1103 -2197 1804 -3745 1915 -162 11 -639 11 -800 -1z m800 -450 c1653 -123
3087 -997 3725 -2269 412 -821 447 -1744 100 -2589 -481 -1171 -1658 -2075
-3104 -2385 -170 -37 -427 -76 -636 -98 -167 -17 -784 -17 -950 0 -487 50
-899 141 -1302 287 l-152 56 -202 -20 -201 -20 -521 -330 c-425 -268 -522
-326 -522 -309 0 11 36 282 80 602 l80 582 -65 188 -65 188 -112 117 c-252
264 -417 482 -581 772 -389 685 -510 1479 -341 2231 235 1044 1008 1956 2119
2498 456 222 894 361 1400 444 138 22 388 51 510 59 127 8 614 6 740 -4z"/>
<path d="M2645 5690 c-118 -24 -245 -97 -320 -184 -202 -237 -189 -576 29
-791 176 -173 437 -214 666 -103 94 45 206 160 253 258 107 228 66 479 -108
656 -136 139 -334 201 -520 164z"/>
<path d="M4892 5680 c-198 -52 -346 -198 -410 -404 -25 -82 -22 -235 8 -325
114 -354 530 -510 848 -319 118 72 217 202 258 343 25 85 23 230 -5 315 -95
298 -400 468 -699 390z"/>
<path d="M7170 5680 c-185 -50 -343 -204 -401 -390 -27 -85 -29 -232 -4 -315
53 -185 191 -332 371 -396 82 -30 227 -36 318 -15 141 33 262 118 344 239 71
106 97 196 96 327 -1 89 -5 117 -29 180 -49 133 -123 227 -237 301 -127 81
-309 109 -458 69z"/>
</g>
</svg>
