<svg xmlns="http://www.w3.org/2000/svg" width="16.498" height="11.99" viewBox="0 0 16.498 11.99">
  <defs>
    <style>
      .cls-1 {
        fill: #f97316;
        stroke: #f97316;
        stroke-width: 0.5px;
      }
    </style>
  </defs>
  <g id="cloud-sync" transform="translate(0.25 0.25)">
    <path id="Path_884" data-name="Path 884" class="cls-1" d="M12.257,4.008a3.771,3.771,0,0,0-.529.037c.008-.1.012-.2.012-.3a3.742,3.742,0,0,0-7.41-.735H4.243a4.242,4.242,0,0,0,0,8.484h.783a.235.235,0,1,0,0-.47H4.243a3.773,3.773,0,0,1,0-7.545c.087,0,.178,0,.268.01a.235.235,0,0,0,.249-.2A3.272,3.272,0,1,1,11.224,4.3a.237.237,0,0,0,.285.268,3.272,3.272,0,1,1,.748,6.457H7.131a.235.235,0,0,0,0,.47h5.126a3.741,3.741,0,0,0,0-7.483Zm0,0"/>
    <path id="Path_886" data-name="Path 886" class="cls-1" d="M152.877,200.4a.193.193,0,0,0-.121.081l-.407.61a.191.191,0,1,0,.317.212l.122-.183a2.226,2.226,0,0,0,4.211.333.191.191,0,0,0-.351-.149,1.844,1.844,0,0,1-3.5-.334l.274.182a.191.191,0,1,0,.212-.317l-.609-.406A.192.192,0,0,0,152.877,200.4Zm0,0" transform="translate(-146.951 -193.745)"/>
    <path id="Path_887" data-name="Path 887" class="cls-1" d="M.56,0A.193.193,0,0,0,.438.085L.031.7A.192.192,0,0,0,.067.947.193.193,0,0,0,.349.907L.471.724A2.229,2.229,0,0,0,2.632,2.416a2.222,2.222,0,0,0,2.05-1.359A.191.191,0,0,0,4.331.908a1.841,1.841,0,0,1-1.7,1.126A1.847,1.847,0,0,1,.828.574L1.1.756A.191.191,0,1,0,1.313.439L.7.033A.192.192,0,0,0,.56,0Zm0,0" transform="translate(10.625 6.416) rotate(-180)"/>
  </g>
</svg>
