<svg xmlns="http://www.w3.org/2000/svg" version="1.1" xmlns:xlink="http://www.w3.org/1999/xlink" xmlns:svgjs="http://svgjs.com/svgjs" width="512" height="512" x="0" y="0" viewBox="0 0 24 24" style="enable-background:new 0 0 512 512" xml:space="preserve" class=""><g><path xmlns="http://www.w3.org/2000/svg" id="path2" d="m19.801 10.222c.13.572.199 1.167.199 1.778 0 4.415-3.585 8-8 8s-8-3.585-8-8 3.585-8 8-8c.923 0 1.809.156 2.634.444.521.182 1.091-.093 1.273-.614.182-.522-.093-1.092-.614-1.274-1.032-.36-2.14-.556-3.293-.556-5.519 0-10 4.481-10 10s4.481 10 10 10 10-4.481 10-10c0-.763-.086-1.507-.248-2.222-.123-.538-.659-.875-1.197-.753s-.876.658-.754 1.197zm-8.801 2.364 8.293-8.293c.39-.39 1.024-.39 1.414 0s.39 1.024 0 1.414l-9 9c-.39.391-1.024.391-1.414 0l-3-3c-.39-.39-.39-1.024 0-1.414s1.024-.39 1.414 0z" fill="#198754" data-original="#000000" class=""></path></g></svg>