<?xml version="1.0" standalone="no"?>
<!DOCTYPE svg PUBLIC "-//W3C//DTD SVG 20010904//EN"
 "http://www.w3.org/TR/2001/REC-SVG-20010904/DTD/svg10.dtd">
<svg version="1.0" xmlns="http://www.w3.org/2000/svg"
 width="225.000000pt" height="225.000000pt" viewBox="0 0 225.000000 225.000000"
 preserveAspectRatio="xMidYMid meet">
<metadata>
Created by potrace 1.16, written by Peter Selinger 2001-2019
</metadata>
<g transform="translate(0.000000,225.000000) scale(0.100000,-0.100000)"
fill="#000000" stroke="none">
<path d="M1079 2009 c-203 -25 -235 -50 -233 -176 l1 -71 -31 -6 c-17 -3 -94
-12 -171 -21 -77 -9 -152 -21 -168 -27 -32 -12 -42 -42 -33 -94 7 -35 8 -35
44 -30 64 10 1021 126 1215 147 100 11 107 13 107 34 0 44 -21 85 -48 92 -23
5 -274 -17 -368 -33 -31 -6 -31 -5 -38 47 -12 87 -43 129 -112 147 -17 5 -85
1 -165 -9z m175 -82 c12 -9 19 -28 20 -53 l1 -39 -170 -21 c-184 -23 -185 -23
-185 32 0 49 29 67 128 80 123 16 185 16 206 1z"/>
<path d="M562 903 c3 -570 4 -589 23 -615 11 -14 34 -35 50 -45 28 -17 61 -18
507 -16 538 2 520 -1 558 78 19 40 20 64 20 613 l0 572 -580 0 -580 0 2 -587z
m240 433 c4 -6 8 -221 8 -477 0 -503 1 -495 -52 -487 l-23 3 -3 480 c-2 432
-1 481 14 492 17 12 44 7 56 -11z m256 -471 c1 -337 -1 -472 -9 -481 -14 -17
-51 -18 -67 -2 -9 9 -12 128 -12 475 0 455 0 463 21 484 18 18 23 19 42 6 l22
-14 3 -468z m240 -8 l-3 -482 -23 -3 c-53 -8 -52 -17 -52 489 0 468 0 468 22
483 15 11 26 12 40 5 17 -9 18 -31 16 -492z m236 487 c14 -14 16 -72 16 -490
l0 -474 -25 -6 c-58 -14 -55 -36 -55 478 0 260 4 478 8 484 4 6 14 14 22 17 8
3 16 6 17 6 1 1 9 -6 17 -15z"/>
</g>
</svg>
