<svg xmlns="http://www.w3.org/2000/svg" width="20" height="20" viewBox="0 0 20 20">
  <defs>
    <style>
      .cls-1 {
        fill: #e8e8e8;
      }
    </style>
  </defs>
  <g id="plan" transform="translate(-40 -756)">
    <path id="Path_96" data-name="Path 96" class="cls-1" d="M2.344,20H17.656A2.346,2.346,0,0,0,20,17.656V2.344A2.345,2.345,0,0,0,16.875.134l-.391.138V2.344H3.516V.272L3.125.134A2.345,2.345,0,0,0,0,2.344V17.656A2.346,2.346,0,0,0,2.344,20ZM17.656,1.172a1.173,1.173,0,0,1,1.172,1.172V15.627a2.33,2.33,0,0,0-1.172-.314ZM1.172,2.344A1.173,1.173,0,0,1,2.344,1.172V15.312a2.33,2.33,0,0,0-1.172.314ZM2.344,16.484a3.986,3.986,0,0,1,1.172.343V3.516H16.484V16.827a4,4,0,0,1,1.172-.343,1.172,1.172,0,0,1,0,2.344H2.344a1.172,1.172,0,0,1,0-2.344Zm0,0" transform="translate(40 756)"/>
    <path id="Path_97" data-name="Path 97" class="cls-1" d="M120,122.238v10.614h8.865Zm.953,2.636,5.857,7.012h-5.857Zm0,0" transform="translate(-74.5 639.962)"/>
    <path id="Path_98" data-name="Path 98" class="cls-1" d="M243.2,125.4a2.2,2.2,0,1,0-2.2-2.2A2.225,2.225,0,0,0,243.2,125.4Zm0-3.523a1.321,1.321,0,1,1,0,2.642,1.321,1.321,0,0,1,0-2.642Zm0,0" transform="translate(-191.068 641.2)"/>
  </g>
</svg>
