<svg xmlns="http://www.w3.org/2000/svg" width="12.305" height="16" viewBox="0 0 12.305 16">
  <g id="rfi" transform="translate(-113.6 -72)">
    <g id="Group_190" data-name="Group 190" transform="translate(113.6 72)">
      <path id="Path_1049" data-name="Path 1049" d="M125.293,88H113.6V72h8.254l4.051,4.051V88Zm-10.461-1.232h9.845V76.563l-3.331-3.331h-6.514Z" transform="translate(-113.6 -72)" fill="#e8e8e8"/>
    </g>
    <g id="Group_191" data-name="Group 191" transform="translate(120.967 72.618)">
      <path id="Path_1050" data-name="Path 1050" d="M282.224,90.024H277.9V85.7h1.237v3.087h3.087Z" transform="translate(-277.9 -85.7)" fill="#e8e8e8"/>
    </g>
    <g id="Group_192" data-name="Group 192" transform="translate(115.643 78.234)">
      <path id="Path_1051" data-name="Path 1051" d="M160.429,213.892v1.864H159.4V210.9h1.413a2.421,2.421,0,0,1,1.462.361,1.438,1.438,0,0,1,.239,1.855,1.572,1.572,0,0,1-.668.524q1.1,1.638,1.426,2.112h-1.137l-1.16-1.864h-.546Zm0-.839h.334a1.259,1.259,0,0,0,.718-.162.586.586,0,0,0,.235-.51.536.536,0,0,0-.239-.492,1.419,1.419,0,0,0-.736-.144h-.311Z" transform="translate(-159.4 -210.9)" fill="#e8e8e8"/>
      <path id="Path_1052" data-name="Path 1052" d="M248.511,215.752H247.5V210.9h2.78v.844h-1.769v1.25h1.647v.839h-1.647Z" transform="translate(-243.524 -210.9)" fill="#e8e8e8"/>
      <path id="Path_1053" data-name="Path 1053" d="M318.8,215.752V210.9h1.029v4.852Z" transform="translate(-311.606 -210.9)" fill="#e8e8e8"/>
    </g>
  </g>
</svg>
