<?xml version="1.0" standalone="no"?>
<!DOCTYPE svg PUBLIC "-//W3C//DTD SVG 20010904//EN"
 "http://www.w3.org/TR/2001/REC-SVG-20010904/DTD/svg10.dtd">
<svg version="1.0" xmlns="http://www.w3.org/2000/svg"
 width="100.000000pt" height="100.000000pt" viewBox="0 0 100.000000 100.000000"
 preserveAspectRatio="xMidYMid meet">

<g transform="translate(0.000000,100.000000) scale(0.100000,-0.100000)"
fill="#e8e8e8" stroke="none">
<path d="M275 867 l-210 -72 0 -365 0 -365 435 0 435 0 0 365 0 365 -210 72
c-115 39 -217 72 -225 72 -8 0 -109 -33 -225 -72z m433 -38 l192 -64 0 -332 0
-333 -40 0 -40 0 -2 288 -3 287 -315 0 -315 0 -3 -287 -2 -288 -40 0 -40 0 0
333 0 332 198 67 c108 36 202 65 207 64 6 -2 97 -32 203 -67z m72 -459 l0
-270 -30 0 -29 0 -3 98 -3 97 -47 3 -47 3 -3 97 -3 97 -115 0 -115 0 -3 -97
-3 -97 -47 -3 -47 -3 -3 -97 -3 -98 -29 0 -30 0 0 270 0 270 280 0 280 0 0
-270z m-200 10 l0 -80 -80 0 -80 0 0 80 0 80 80 0 80 0 0 -80z m-100 -200 l0
-80 -80 0 -80 0 0 80 0 80 80 0 80 0 0 -80z m200 0 l0 -80 -80 0 -80 0 0 80 0
80 80 0 80 0 0 -80z"/>
</g>
</svg>
