<?xml version="1.0" standalone="no"?>
<!DOCTYPE svg PUBLIC "-//W3C//DTD SVG 20010904//EN"
 "http://www.w3.org/TR/2001/REC-SVG-20010904/DTD/svg10.dtd">
<svg version="1.0" xmlns="http://www.w3.org/2000/svg"
 width="216.000000pt" height="233.000000pt" viewBox="0 0 216.000000 233.000000"
 preserveAspectRatio="xMidYMid meet">
<metadata>
Created by potrace 1.16, written by Peter Selinger 2001-2019
</metadata>
<g transform="translate(0.000000,233.000000) scale(0.100000,-0.100000)"
fill="#000000" stroke="none">
<path d="M1035 1999 c-17 -4 -44 -23 -61 -41 -25 -27 -288 -472 -409 -693 -15
-27 -31 -54 -35 -60 -4 -5 -72 -122 -151 -260 -123 -216 -143 -257 -147 -302
-5 -64 9 -103 51 -134 l32 -24 766 0 766 0 34 27 c46 35 64 91 48 150 -9 36
-145 281 -389 703 -29 50 -113 196 -187 325 -74 129 -149 250 -166 268 -17 18
-47 37 -67 42 -40 11 -44 11 -85 -1z m92 -101 c12 -13 65 -99 118 -193 54 -93
130 -226 170 -295 40 -69 143 -249 230 -400 87 -151 169 -293 182 -315 31 -54
30 -88 -3 -114 -26 -21 -33 -21 -744 -21 -711 0 -718 0 -744 21 -15 12 -26 30
-26 45 0 21 85 178 260 479 29 50 130 225 225 390 95 165 183 318 195 340 36
61 61 85 90 85 15 0 36 -10 47 -22z"/>
<path d="M1063 1848 c-5 -7 -56 -94 -113 -193 -57 -99 -126 -218 -153 -265
-27 -47 -59 -101 -70 -120 -10 -19 -83 -145 -160 -280 -187 -325 -197 -343
-197 -357 0 -10 149 -13 710 -13 591 0 710 2 710 14 0 13 -67 133 -305 546
-65 113 -172 300 -238 415 -160 279 -162 282 -184 253z m74 -342 c34 -29 34
-33 8 -335 -19 -217 -25 -241 -63 -241 -36 0 -44 17 -53 106 -4 49 -13 139
-18 199 -6 61 -11 142 -11 182 0 65 2 73 26 92 35 28 77 26 111 -3z m-7 -661
c47 -50 17 -128 -51 -128 -23 0 -39 8 -56 27 -30 35 -29 66 2 100 31 34 74 34
105 1z"/>
</g>
</svg>
