<svg width="24" height="20" viewBox="0 0 24 20" fill="none" xmlns="http://www.w3.org/2000/svg">
<path d="M21.1667 0.5H2.83333C1.54504 0.5 0.5 1.54504 0.5 2.83333V16.2778C0.5 17.5661 1.54504 18.6111 2.83333 18.6111H21.1667C22.455 18.6111 23.5 17.5661 23.5 16.2778V2.83333C23.5 1.54504 22.455 0.5 21.1667 0.5ZM7.72222 5.16667C8.79434 5.16667 9.66667 6.03899 9.66667 7.11111C9.66667 8.18323 8.79434 9.05555 7.72222 9.05555C6.6501 9.05555 5.77778 8.18323 5.77778 7.11111C5.77778 6.03899 6.6501 5.16667 7.72222 5.16667ZM11.5 13.7111C11.5 13.7486 11.4836 13.7992 11.4242 13.8501C11.3638 13.902 11.2667 13.9444 11.1444 13.9444H4.3C4.17774 13.9444 4.0806 13.902 4.02021 13.8501C3.96086 13.7992 3.94444 13.7486 3.94444 13.7111V12.9778C3.94444 12.1089 4.79515 11.2778 6.01111 11.2778H6.10548C6.60651 11.4726 7.15053 11.5833 7.72222 11.5833C8.29283 11.5833 8.84027 11.4731 9.33957 11.2778H9.43333C10.6493 11.2778 11.5 12.1089 11.5 12.9778V13.7111ZM20.0556 11.2778V11.5H14.9444V11.2778H20.0556ZM20.0556 8.83333V9.05555H14.9444V8.83333H20.0556ZM20.0556 6.38889V6.61111H14.9444V6.38889H20.0556Z" stroke="#f97316"/>
<path d="M21.1667 0.5H2.83333C1.54504 0.5 0.5 1.54504 0.5 2.83333V16.2778C0.5 17.5661 1.54504 18.6111 2.83333 18.6111H21.1667C22.455 18.6111 23.5 17.5661 23.5 16.2778V2.83333C23.5 1.54504 22.455 0.5 21.1667 0.5ZM7.72222 5.16667C8.79434 5.16667 9.66667 6.03899 9.66667 7.11111C9.66667 8.18323 8.79434 9.05555 7.72222 9.05555C6.6501 9.05555 5.77778 8.18323 5.77778 7.11111C5.77778 6.03899 6.6501 5.16667 7.72222 5.16667ZM11.5 13.7111C11.5 13.7486 11.4836 13.7992 11.4242 13.8501C11.3638 13.902 11.2667 13.9444 11.1444 13.9444H4.3C4.17774 13.9444 4.0806 13.902 4.02021 13.8501C3.96086 13.7992 3.94444 13.7486 3.94444 13.7111V12.9778C3.94444 12.1089 4.79515 11.2778 6.01111 11.2778H6.10548C6.60651 11.4726 7.15053 11.5833 7.72222 11.5833C8.29283 11.5833 8.84027 11.4731 9.33957 11.2778H9.43333C10.6493 11.2778 11.5 12.1089 11.5 12.9778V13.7111ZM20.0556 11.2778V11.5H14.9444V11.2778H20.0556ZM20.0556 8.83333V9.05555H14.9444V8.83333H20.0556ZM20.0556 6.38889V6.61111H14.9444V6.38889H20.0556Z" stroke="#f97316"/>
</svg>
