<?xml version="1.0" standalone="no"?>
<!DOCTYPE svg PUBLIC "-//W3C//DTD SVG 20010904//EN"
 "http://www.w3.org/TR/2001/REC-SVG-20010904/DTD/svg10.dtd">
<svg version="1.0" xmlns="http://www.w3.org/2000/svg"
 width="225.000000pt" height="225.000000pt" viewBox="0 0 225.000000 225.000000"
 preserveAspectRatio="xMidYMid meet">
<metadata>
Created by potrace 1.16, written by Peter Selinger 2001-2019
</metadata>
<g transform="translate(0.000000,225.000000) scale(0.100000,-0.100000)"
fill="#FFFFFF" stroke="none">
<path d="M0 1125 l0 -1125 1125 0 1125 0 0 1125 0 1125 -1125 0 -1125 0 0
-1125z m1176 677 c12 -9 48 -62 79 -117 32 -55 132 -228 223 -385 91 -157 217
-375 280 -484 63 -110 123 -214 133 -230 27 -45 25 -101 -6 -131 l-24 -25
-736 0 -736 0 -24 25 c-18 17 -25 35 -25 61 0 37 11 57 308 569 38 66 144 251
236 410 92 160 176 298 188 308 26 22 77 22 104 -1z"/>
<path d="M1012 1568 c-54 -95 -174 -303 -266 -463 -92 -159 -206 -356 -253
-437 -46 -81 -82 -152 -78 -158 9 -14 1411 -14 1420 0 4 6 -4 29 -18 53 -20
36 -409 710 -457 792 -10 17 -64 110 -120 208 -56 97 -108 177 -115 177 -8 0
-58 -78 -113 -172z m165 -152 c23 -20 27 -31 25 -70 -3 -71 -53 -529 -58 -538
-9 -14 -32 -9 -38 8 -4 9 -13 80 -22 158 -8 77 -21 197 -29 265 -7 69 -11 132
-8 140 8 25 56 61 80 61 12 0 34 -11 50 -24z"/>
</g>
</svg>
