<?xml version="1.0" standalone="no"?>
<!DOCTYPE svg PUBLIC "-//W3C//DTD SVG 20010904//EN"
 "http://www.w3.org/TR/2001/REC-SVG-20010904/DTD/svg10.dtd">
<svg version="1.0" xmlns="http://www.w3.org/2000/svg"
 width="225.000000pt" height="225.000000pt" viewBox="0 0 225.000000 225.000000"
 preserveAspectRatio="xMidYMid meet">
<metadata>
Created by potrace 1.16, written by Peter Selinger 2001-2019
</metadata>
<g transform="translate(0.000000,225.000000) scale(0.100000,-0.100000)"
fill="#000000" stroke="none">
<path d="M1055 2241 c-60 -15 -106 -44 -153 -96 -42 -45 -55 -72 -78 -152 -3
-10 -51 -13 -197 -13 -147 0 -204 -4 -238 -15 -106 -36 -169 -130 -169 -249 1
-106 47 -188 131 -232 l29 -15 0 -628 c0 -680 -1 -672 55 -745 14 -18 49 -46
77 -62 l53 -29 560 0 c555 0 560 0 601 22 50 27 97 75 121 122 17 33 18 84 21
678 l2 643 28 14 c42 22 108 98 122 140 7 22 11 69 8 110 -3 60 -9 82 -33 122
-33 52 -89 96 -146 113 -21 6 -119 11 -228 11 -145 0 -193 3 -195 13 -31 108
-93 189 -172 227 -50 23 -151 34 -199 21z m138 -125 c41 -18 94 -73 102 -108
l7 -28 -176 0 c-165 0 -176 1 -176 19 0 18 31 64 60 89 48 41 125 53 183 28z
m642 -270 c48 -20 75 -68 75 -133 0 -44 -5 -58 -31 -88 -18 -20 -47 -39 -69
-45 -26 -7 -267 -10 -707 -8 -634 3 -670 4 -699 22 -43 26 -64 66 -64 123 0
59 28 109 73 128 48 21 1372 22 1422 1z m-87 -1021 l-3 -625 -38 -37 -37 -38
-543 0 c-526 0 -543 1 -569 20 -59 44 -58 27 -58 694 l0 611 625 0 625 0 -2
-625z"/>
<path d="M780 1083 c-39 -14 -40 -26 -40 -403 0 -343 1 -368 18 -383 26 -24
68 -21 86 5 14 19 16 73 16 381 l0 358 -25 24 c-25 26 -29 27 -55 18z"/>
<path d="M1099 1076 l-24 -12 -3 -376 c-2 -409 -3 -408 53 -408 55 0 55 -1 55
404 0 287 -3 376 -12 383 -24 18 -45 21 -69 9z"/>
<path d="M1417 1069 l-27 -20 0 -363 c0 -398 1 -406 59 -406 61 0 61 0 61 401
0 277 -3 369 -12 381 -22 27 -53 30 -81 7z"/>
</g>
</svg>
