<?xml version="1.0" standalone="no"?>
<!DOCTYPE svg PUBLIC "-//W3C//DTD SVG 20010904//EN"
 "http://www.w3.org/TR/2001/REC-SVG-20010904/DTD/svg10.dtd">
<svg version="1.0" xmlns="http://www.w3.org/2000/svg"
 width="225.000000pt" height="225.000000pt" viewBox="0 0 225.000000 225.000000"
 preserveAspectRatio="xMidYMid meet">
<metadata>
Created by potrace 1.16, written by Peter Selinger 2001-2019
</metadata>
<g transform="translate(0.000000,225.000000) scale(0.100000,-0.100000)"
fill="#f97316" stroke="none">
<path d="M160 1891 c-75 -23 -125 -71 -149 -140 -8 -24 -11 -211 -11 -631 l0
-596 28 -55 c29 -58 71 -93 133 -109 25 -7 366 -9 987 -8 l949 3 49 30 c37 23
56 44 77 84 l27 55 0 601 0 601 -27 55 c-30 57 -71 92 -132 109 -43 12 -1892
12 -1931 1z m1925 -156 l25 -24 0 -586 0 -586 -25 -24 -24 -25 -936 0 -936 0
-24 25 -25 24 0 586 0 586 25 24 24 25 936 0 936 0 24 -25z"/>
<path d="M570 1538 c-104 -30 -152 -142 -104 -243 54 -114 227 -119 294 -9 80
128 -45 294 -190 252z"/>
<path d="M1213 1473 c-49 -9 -69 -77 -33 -113 19 -19 33 -20 349 -20 351 0
350 0 366 49 9 28 -12 70 -40 81 -25 10 -595 12 -642 3z"/>
<path d="M1180 1170 c-11 -11 -20 -31 -20 -45 0 -14 9 -34 20 -45 19 -19 33
-20 346 -20 192 0 333 4 344 10 35 19 33 88 -4 112 -6 4 -158 8 -338 8 -315 0
-329 -1 -348 -20z"/>
<path d="M500 1075 c-100 -29 -174 -85 -204 -157 -10 -22 -16 -67 -16 -108 0
-115 -16 -110 335 -110 352 0 335 -6 335 113 0 88 -21 138 -77 188 -82 74
-252 108 -373 74z"/>
<path d="M1180 890 c-25 -25 -26 -61 -1 -91 l19 -24 333 2 c330 1 334 2 351
23 23 29 23 51 -3 84 l-20 26 -330 0 c-316 0 -330 -1 -349 -20z"/>
</g>
</svg>
