<svg xmlns="http://www.w3.org/2000/svg" width="16" height="16" viewBox="0 0 16 16">
  <path id="meeting-room" d="M1.906,3.75A1.875,1.875,0,1,0,.031,1.875,1.877,1.877,0,0,0,1.906,3.75Zm0-2.5a.625.625,0,1,1-.625.625A.626.626,0,0,1,1.906,1.25ZM15.375,7.458A.625.625,0,0,0,16,6.833V6.25a1.877,1.877,0,0,0-1.875-1.875h-.279a.625.625,0,0,0-.552.333l-1.576,2.98H10.5V6.219A1.877,1.877,0,0,0,8.625,4.344H7.375A1.877,1.877,0,0,0,5.5,6.219V7.688H4.283L2.707,4.708a.625.625,0,0,0-.552-.333H1.875A1.877,1.877,0,0,0,0,6.25V9.938a1.878,1.878,0,0,0,1.2,1.75.622.622,0,0,0,.328.094h.007c.051.009.1.017.156.022a.626.626,0,0,1,.462.6v2.969a.625.625,0,0,0,1.25,0V12.406a1.867,1.867,0,0,0-.1-.594H4.656v2.313A1.877,1.877,0,0,0,6.531,16H9.5a1.877,1.877,0,0,0,1.875-1.875V11.813h1.316a1.867,1.867,0,0,0-.1.594v2.969a.625.625,0,0,0,1.25,0V12.406a.625.625,0,0,1,.462-.6c.053-.005.1-.013.156-.022h.007a.622.622,0,0,0,.328-.094A1.878,1.878,0,0,0,16,9.937a.625.625,0,1,0-1.25,0,.625.625,0,0,1-.462.6c-.053.005-.1.013-.156.022H11.375V8.938h.719a.625.625,0,0,0,.552-.333l1.572-2.973a.626.626,0,0,1,.531.618v.583a.625.625,0,0,0,.625.625ZM6.75,6.219a.626.626,0,0,1,.625-.625h1.25a.626.626,0,0,1,.625.625V7.688H6.75ZM1.875,10.563H1.868c-.051-.009-.1-.017-.156-.022a.626.626,0,0,1-.462-.6V6.25a.626.626,0,0,1,.531-.618L3.354,8.6a.625.625,0,0,0,.552.333h.75v1.625Zm8.25,3.563a.626.626,0,0,1-.625.625H6.531a.626.626,0,0,1-.625-.625V8.938h4.219ZM14.094,3.75a1.875,1.875,0,1,0-1.875-1.875A1.877,1.877,0,0,0,14.094,3.75Zm0-2.5a.625.625,0,1,1-.625.625A.626.626,0,0,1,14.094,1.25ZM8,3.75A1.875,1.875,0,1,0,6.125,1.875,1.877,1.877,0,0,0,8,3.75Zm0-2.5a.625.625,0,1,1-.625.625A.626.626,0,0,1,8,1.25Zm0,0" transform="translate(0)" fill="#e8e8e8"/>
</svg>
