<svg xmlns="http://www.w3.org/2000/svg" width="109.863" height="125" viewBox="0 0 109.863 125">
  <defs>
    <style>
      .cls-1 {
        fill: #212121;
      }

      .cls-2 {
        fill: #f97316;
      }
    </style>
  </defs>
  <g id="mail" transform="translate(-31)">
    <g id="Group_209" data-name="Group 209" transform="translate(67.607 22.159)">
      <g id="Group_208" data-name="Group 208" transform="translate(0)">
        <path id="Path_1085" data-name="Path 1085" className="cls-1" d="M169.325,60a18.322,18.322,0,0,0-9.863,33.765,18.7,18.7,0,0,0,18.225,1A2.618,2.618,0,0,0,175.5,90a13.563,13.563,0,0,1-13.212-.647,13.088,13.088,0,1,1,20.128-11.031,2.618,2.618,0,0,1-5.235.04c0-.013,0-.027,0-.04a7.865,7.865,0,1,0-2.618,5.848,7.849,7.849,0,0,0,13.09-5.848A18.346,18.346,0,0,0,169.325,60Zm2.581,18.745a2.612,2.612,0,1,1,.018-.719A2.621,2.621,0,0,0,171.906,78.745Z" transform="translate(-151 -60)"/>
      </g>
    </g>
    <g id="Group_211" data-name="Group 211" transform="translate(31)">
      <g id="Group_210" data-name="Group 210">
        <path id="Path_1086" data-name="Path 1086" className="cls-2" d="M140.863,48.09a3.687,3.687,0,0,0-1.072-2.584L126.215,31.93V3.662A3.662,3.662,0,0,0,122.553,0H49.311a3.662,3.662,0,0,0-3.662,3.662V31.93L32.073,45.506c-.013.013-.023.027-.036.04A3.678,3.678,0,0,0,31,48.09s0,0,0,.007v65.917A11,11,0,0,0,41.986,125h87.891a11,11,0,0,0,10.986-10.986V48.1S140.863,48.092,140.863,48.09Zm-14.648-5.8,5.807,5.807L126.215,53.9Zm-73.242-8.84V7.324h65.918v53.9L99.063,81.055H72.8L52.973,61.227Zm-7.324,8.84V53.9L39.841,48.1ZM38.324,112.5V56.937L66.1,84.717Zm5.179,5.179,29.3-29.3H99.063l29.3,29.3Zm90.036-5.179-27.78-27.78,27.78-27.78Z" transform="translate(-31)"/>
      </g>
    </g>
  </g>
</svg>
