<svg xmlns="http://www.w3.org/2000/svg" width="20.004" height="19.813" viewBox="0 0 20.004 19.813">
  <g id="Group_70" data-name="Group 70" transform="translate(-126 -756)">
    <path id="Path_99" data-name="Path 99" d="M19.9,5.464a.773.773,0,0,0-.511-.362L8.055,2.37a.767.767,0,0,0-.871.491L2.865,13.833l1.442.525L8.4,3.926l9.845,2.512c-.615,1.906-2.078,5.885-3.48,9.589-1.223,3.232-1.926,4.339-3.264,4.565a.008.008,0,0,1,0-.005c-2.733.383-2.684-3.1-2.684-3.1L.084,13.959c-.62,3.932,2.4,4.877,2.4,4.877l6.391,2.9a4.954,4.954,0,0,0,2.084.427c2.925-.069,3.953-2.193,5.241-5.6,1.861-4.917,3.749-10.427,3.768-10.486A.759.759,0,0,0,19.9,5.464Z" transform="translate(126 753.644)" fill="#e8e8e8"/>
    <path id="Path_100" data-name="Path 100" d="M271.937,128.5a.768.768,0,1,0,.4-1.481L269.014,126a.768.768,0,1,0-.4,1.481Z" transform="translate(-131.205 635.03)" fill="#e8e8e8"/>
    <path id="Path_101" data-name="Path 101" d="M234.851,203.525a.769.769,0,0,0,.485.972l3.31,1.183a.761.761,0,0,0,.239.039.767.767,0,0,0,.247-1.5l-3.309-1.182A.769.769,0,0,0,234.851,203.525Z" transform="translate(-99.317 561.112)" fill="#e8e8e8"/>
    <path id="Path_102" data-name="Path 102" d="M204.692,282.245a.767.767,0,1,0-.478,1.457l3.317,1.178a.741.741,0,0,0,.24.039.767.767,0,0,0,.239-1.5Z" transform="translate(-69.449 485.111)" fill="#e8e8e8"/>
    <path id="Path_103" data-name="Path 103" d="M205.352,104.517a.828.828,0,1,1-.852.828A.84.84,0,0,1,205.352,104.517Z" transform="translate(-70.23 655.614)" fill="#e8e8e8"/>
    <path id="Path_104" data-name="Path 104" d="M175.583,180.572a.828.828,0,1,1-.852.827A.84.84,0,0,1,175.583,180.572Z" transform="translate(-41.665 582.635)" fill="#e8e8e8"/>
    <path id="Path_105" data-name="Path 105" d="M143.833,259.039a.828.828,0,1,1-.852.829A.84.84,0,0,1,143.833,259.039Z" transform="translate(-11.199 507.341)" fill="#e8e8e8"/>
  </g>
</svg>
