
<svg version="1.2" baseProfile="tiny-ps" xmlns="http://www.w3.org/2000/svg" viewBox="0 0 512 512" width="512" height="512">
	<title>delete-white-svg</title>
	<style>
		tspan { white-space:pre }
		.shp0 { fill: #ffffff } 
	</style>
	<g id="Layer">
		<path id="Layer" class="shp0" d="M209.37 30.91L294.94 30.91L294.94 45.3L325.84 45.3L325.84 28.89C325.85 12.96 312.89 0 296.97 0L207.34 0C191.42 0 178.46 12.96 178.46 28.89L178.46 45.3L209.37 45.3L209.37 30.91Z" />
		<path id="Layer" fill-rule="evenodd" class="shp0" d="M397.21 167.75C405.16 167.75 411.42 174.53 410.77 182.46L386.52 482.36C385.17 499.11 371.2 512 354.43 512L149.88 512C133.11 512 119.14 499.11 117.79 482.36L93.54 182.46C92.89 174.53 99.15 167.75 107.1 167.75L397.21 167.75ZM177.35 480.01C185.86 479.48 192.34 472.16 191.82 463.64L176.62 217.43C176.1 208.91 168.73 202.44 160.25 202.96C151.73 203.48 145.25 210.81 145.77 219.33L160.97 465.54C161.48 473.73 168.28 480.04 176.38 480.04C176.7 480.04 177.02 480.03 177.35 480.01ZM267.78 218.38C267.78 209.84 260.86 202.93 252.33 202.93C243.79 202.93 236.88 209.84 236.88 218.38L236.88 464.59C236.88 473.12 243.79 480.04 252.33 480.04C260.86 480.04 267.78 473.12 267.78 464.59L267.78 218.38ZM358.54 219.29C359.04 210.77 352.54 203.45 344.02 202.95C335.48 202.45 328.19 208.95 327.69 217.47L313.18 463.68C312.68 472.2 319.18 479.51 327.7 480.02C328 480.03 328.31 480.04 328.62 480.04C336.73 480.04 343.55 473.71 344.03 465.5L358.54 219.29Z" />
		<path id="Layer" class="shp0" d="M450.65 120.06L440.5 89.64C437.82 81.62 430.32 76.21 421.86 76.21L82.45 76.21C74 76.21 66.48 81.62 63.81 89.64L53.66 120.06C51.71 125.93 54.25 131.91 59.01 134.9C60.95 136.11 63.24 136.84 65.76 136.84L438.55 136.84C441.07 136.84 443.37 136.11 445.3 134.89C450.06 131.91 452.61 125.93 450.65 120.06Z" />
	</g>
</svg>