<svg id="notification" xmlns="http://www.w3.org/2000/svg" width="16.005" height="15.924" viewBox="0 0 16.005 15.924">
  <defs>
    <style>
      .cls-1 {
        fill: #f97316;
      }
    </style>
  </defs>
  <path id="notification-2" data-name="notification" class="cls-1" d="M15.376,12.565c-1.439-1.244-2.77-3-2.77-7.382a4.6,4.6,0,0,0-9.207,0c0,4.387-1.331,6.14-2.771,7.383A1.823,1.823,0,0,0,0,13.94a.524.524,0,0,0,.524.524H5.493a2.563,2.563,0,0,0,5.019,0h4.969A.524.524,0,0,0,16,13.94,1.812,1.812,0,0,0,15.376,12.565ZM8,15.456a1.519,1.519,0,0,1-1.423-.993H9.425A1.519,1.519,0,0,1,8,15.456Zm-6.749-2.04a.771.771,0,0,1,.061-.059c2.2-1.9,3.132-4.34,3.132-8.174a3.556,3.556,0,0,1,7.112,0c0,3.831.937,6.276,3.133,8.175a.778.778,0,0,1,.061.059Z" transform="translate(0 -0.58)"/>
</svg>
