<svg id="photos" xmlns="http://www.w3.org/2000/svg" width="16" height="14.438" viewBox="0 0 16 14.438">
  <path id="Path_106" data-name="Path 106" d="M134.9,157a3.9,3.9,0,1,0,3.9,3.9A3.909,3.909,0,0,0,134.9,157Zm0,6.559a2.655,2.655,0,1,1,2.655-2.655A2.658,2.658,0,0,1,134.9,163.559Z" transform="translate(-126.904 -152.873)" fill="#e8e8e8"/>
  <path id="Path_107" data-name="Path 107" d="M14.125,27.25h-2.3a.193.193,0,0,1-.172-.1l-.636-1.337-.005-.011A1.437,1.437,0,0,0,9.72,25h-3.4a1.436,1.436,0,0,0-1.292.8l-.005.011-.636,1.337a.193.193,0,0,1-.172.1H1.875A1.877,1.877,0,0,0,0,29.125v8.438a1.877,1.877,0,0,0,1.875,1.875h12.25A1.877,1.877,0,0,0,16,37.563V29.125A1.877,1.877,0,0,0,14.125,27.25Zm.625,10.312a.626.626,0,0,1-.625.625H1.875a.626.626,0,0,1-.625-.625V29.125a.626.626,0,0,1,.625-.625H4.219a1.437,1.437,0,0,0,1.292-.8l.005-.011.636-1.337a.193.193,0,0,1,.172-.1h3.4a.193.193,0,0,1,.172.1l.636,1.337.005.011a1.437,1.437,0,0,0,1.292.8h2.3a.626.626,0,0,1,.625.625Z" transform="translate(0 -25)" fill="#e8e8e8"/>
  <rect id="Rectangle_174" data-name="Rectangle 174" width="1" height="1" rx="0.5" transform="translate(12.006 5.053)" fill="#e8e8e8"/>
</svg>
