<svg id="setting" xmlns="http://www.w3.org/2000/svg" width="16.002" height="16" viewBox="0 0 16.002 16">
  <path id="Path_159" data-name="Path 159" d="M8.952,16.017H6.944A.856.856,0,0,1,6.1,15.3l-.236-1.45c-.107-.039-.213-.082-.318-.126l-1.167.889a.881.881,0,0,1-1.11-.06L1.808,13.172a.865.865,0,0,1-.144-1.066l.811-1.347a6.17,6.17,0,0,1-.254-.615L.673,9.8A.853.853,0,0,1,0,8.965V6.956a.855.855,0,0,1,.72-.846L2.3,5.853c.063-.158.133-.314.208-.467L1.638,3.968A.862.862,0,0,1,1.775,2.9L3.227,1.512a.873.873,0,0,1,1.108-.067l1.32.991c.062-.024.123-.048.187-.071L6.1.735A.855.855,0,0,1,6.944.017H8.952A.862.862,0,0,1,9.79.691l.368,1.673c.057.021.113.041.17.064l1.413-.959a.876.876,0,0,1,1.072.087l1.459,1.381a.853.853,0,0,1,.119,1.105l-.9,1.328q.12.24.218.489l1.577.258A.854.854,0,0,1,16,6.962V8.971a.861.861,0,0,1-.674.837l-1.547.339a5.813,5.813,0,0,1-.226.555l.861,1.252a.856.856,0,0,1-.113,1.1l-1.449,1.391a.874.874,0,0,1-1.072.094L10.518,13.7q-.195.087-.4.162l-.326,1.486A.864.864,0,0,1,8.952,16.017Zm-1.894-.991H8.845l.363-1.653a.5.5,0,0,1,.335-.367,5.052,5.052,0,0,0,.791-.319.5.5,0,0,1,.5.03l1.409.943,1.29-1.237-.962-1.4a.494.494,0,0,1-.029-.513,5.137,5.137,0,0,0,.38-.929.494.494,0,0,1,.368-.341l1.718-.377V7.079l-1.751-.287a.5.5,0,0,1-.389-.33,5.013,5.013,0,0,0-.392-.877.494.494,0,0,1,.022-.523l1.007-1.483-1.3-1.229-1.429.97a.362.362,0,0,1-.048.05.5.5,0,0,1-.54.078,4.961,4.961,0,0,0-.624-.234.5.5,0,0,1-.345-.457L8.844,1.008H7.058L6.768,2.78l-.019,0a.6.6,0,0,1-.318.437,5.015,5.015,0,0,0-.643.245.5.5,0,0,1-.547-.081.424.424,0,0,1-.04-.041L3.83,2.306,2.54,3.542l.918,1.5a.515.515,0,0,1,.053.562,5.207,5.207,0,0,0-.378.85.5.5,0,0,1-.39.329L.992,7.07V8.857l1.718.378a.5.5,0,0,1,.368.342,5.066,5.066,0,0,0,.4.966.494.494,0,0,1-.012.491l-.9,1.49,1.3,1.229,1.315-1A.5.5,0,0,1,5.7,12.7a5.125,5.125,0,0,0,.75.3.5.5,0,0,1,.34.392Zm.995-3.993A2.929,2.929,0,1,1,10.983,8.1,2.933,2.933,0,0,1,8.053,11.033Zm0-4.868A1.938,1.938,0,1,0,9.991,8.1,1.941,1.941,0,0,0,8.053,6.165Z" transform="translate(0 -0.017)" fill="#e8e8e8"/>
</svg>
